<?xml version="1.0" encoding="utf-8"?>
<!-- Generator: Adobe Illustrator 19.2.1, SVG Export Plug-In . SVG Version: 6.00 Build 0)  -->
<!DOCTYPE svg PUBLIC "-//W3C//DTD SVG 1.1//EN" "http://www.w3.org/Graphics/SVG/1.1/DTD/svg11.dtd">
<svg version="1.1" id="CoC" xmlns="http://www.w3.org/2000/svg" xmlns:xlink="http://www.w3.org/1999/xlink" x="0px" y="0px"
	 viewBox="0 0 216 102.4" style="enable-background:new 0 0 216 102.4;" xml:space="preserve">
<style type="text/css">
	.st0{fill:#C8102E;}
	.st1{fill:#4B4F55;}
	.st2{fill:#FFFFFF;}
</style>
<g>
	<rect x="0" y="0" class="st0" width="158.6" height="102.4"/>
	<rect x="162" y="0" class="st1" width="54" height="102.4"/>
	<g>
		<g>
			<path class="st2" d="M37.9,81c-1.1,0.5-3.8,1.2-7.1,1.2c-9.6,0-14.6-5.8-14.6-13.5c0-9.2,6.8-14.2,15.2-14.2
				c3.3,0,5.7,0.6,6.9,1.2L37,60.5c-1.2-0.5-3-1-5.3-1c-5,0-8.8,2.9-8.8,8.9c0,5.4,3.3,8.8,8.9,8.8c1.9,0,4-0.4,5.3-0.9L37.9,81z"/>
			<path class="st2" d="M51,72.5c-3.3,0-5.9,0.8-5.9,3.1c0,1.6,1.1,2.3,2.5,2.3c1.5,0,2.9-1,3.3-2.2c0.1-0.3,0.1-0.7,0.1-1V72.5z
				 M57.1,77c0,1.8,0.1,3.6,0.3,4.7h-5.7l-0.4-2h-0.1c-1.3,1.6-3.4,2.4-5.8,2.4c-4.1,0-6.5-2.9-6.5-6c0-5.1,4.7-7.4,11.9-7.4v-0.2
				c0-1.1-0.6-2.5-3.7-2.5c-2.1,0-4.3,0.7-5.6,1.5l-1.2-3.9c1.4-0.8,4.2-1.8,7.9-1.8c6.7,0,8.8,3.8,8.8,8.4V77z"/>
		</g>
		<rect x="58.8" y="53.5" class="st2" width="6.3" height="28.3"/>
		<g>
			<path class="st2" d="M80.3,70.2c0-0.4,0-0.8-0.1-1.1c-0.5-1.6-1.7-2.7-3.4-2.7c-2.3,0-4.1,2-4.1,5.5c0,2.9,1.5,5.2,4.1,5.2
				c1.7,0,2.9-1,3.3-2.4c0.2-0.5,0.2-1.1,0.2-1.6V70.2z M86.6,78.9c0,3.7-0.8,6.8-3.1,8.8c-2.2,1.8-5.2,2.4-8.2,2.4
				c-2.7,0-5.5-0.5-7.3-1.5l1.2-4.6c1.3,0.7,3.5,1.5,5.9,1.5c3,0,5.2-1.5,5.2-5.1v-1.2h-0.1c-1.2,1.6-3.1,2.5-5.5,2.5
				c-5,0-8.6-3.9-8.6-9.5c0-6.3,4.2-10.3,9.2-10.3c2.8,0,4.5,1.2,5.5,2.8h0.1l0.2-2.3h5.5c-0.1,1.3-0.2,2.9-0.2,5.8V78.9z"/>
			<path class="st2" d="M99.9,72.5c-3.3,0-5.9,0.8-5.9,3.1c0,1.6,1.1,2.3,2.5,2.3c1.5,0,2.9-1,3.3-2.2c0.1-0.3,0.1-0.7,0.1-1V72.5z
				 M106,77c0,1.8,0.1,3.6,0.3,4.7h-5.7l-0.4-2h-0.1c-1.3,1.6-3.4,2.4-5.8,2.4c-4.1,0-6.5-2.9-6.5-6c0-5.1,4.7-7.4,11.9-7.4v-0.2
				c0-1.1-0.6-2.5-3.7-2.5c-2.1,0-4.3,0.7-5.6,1.5l-1.2-3.9c1.4-0.8,4.2-1.8,7.9-1.8c6.7,0,8.8,3.8,8.8,8.4V77z"/>
			<path class="st2" d="M107.7,68.7c0-2.9,0-4.7-0.2-6.4h5.4l0.2,3.6h0.2c1-2.9,3.5-4.1,5.5-4.1c0.6,0,0.9,0,1.3,0.1v5.7
				c-0.5-0.1-1-0.2-1.7-0.2c-2.3,0-3.9,1.2-4.3,3.1c-0.1,0.4-0.1,0.9-0.1,1.4v9.9h-6.3V68.7z"/>
			<path class="st2" d="M128.1,62.3l3,9.6c0.3,1.1,0.7,2.6,1,3.6h0.2c0.2-1.1,0.6-2.5,0.9-3.7l2.5-9.6h6.7l-4.7,12.8
				c-2.9,7.8-4.8,10.8-7.1,12.8c-2.2,1.8-4.5,2.5-6,2.7l-1.4-5.1c0.8-0.2,1.8-0.5,2.7-1c1-0.5,2-1.5,2.6-2.4
				c0.2-0.3,0.3-0.6,0.3-0.9c0-0.2,0-0.5-0.2-1l-7.4-17.8H128.1z"/>
		</g>
	</g>
	<rect x="158.6" y="0" class="st2" width="3.4" height="102.4"/>
	<g>
		<path class="st2" d="M189.9,52.3l-0.6-7.1l-0.6,7.1C189.1,52.2,189.5,52.2,189.9,52.3"/>
		<path class="st2" d="M198.6,77.3L198.6,77.3c0-0.2,0-0.4-0.1-0.5c-0.1-0.1-0.3-0.2-0.5-0.3c-0.1,0-0.1,0-0.2,0l-0.2,1.5
			c0,0,0.1,0,0.1,0C198.3,78.1,198.6,77.8,198.6,77.3"/>
		<path class="st2" d="M187.4,52.4l-1.8-5.2l0.7,5.4C186.7,52.5,187,52.5,187.4,52.4"/>
		<path class="st2" d="M193.1,47.3l-1.7,5.1c0.4,0.1,0.7,0.1,1.1,0.2L193.1,47.3z"/>
		<path class="st2" d="M180.7,76.6c-0.1-0.1-0.2-0.1-0.3-0.1c0,0,0,0-0.1,0c-0.1,0-0.2,0.1-0.3,0.2c-0.1,0.2-0.2,0.4-0.1,0.7
			c0.1,0.5,0.3,0.7,0.6,0.7c0.3,0,0.5-0.4,0.4-0.8C180.9,77,180.8,76.8,180.7,76.6"/>
		<path class="st2" d="M195,76.5c0-0.1,0-0.1-0.1-0.2c-0.1-0.1-0.2-0.1-0.3-0.1c-0.1,0-0.1,0-0.2,0l0,0.5l0.2,0
			C194.9,76.8,195,76.7,195,76.5"/>
		<path class="st2" d="M196.1,67c0-0.1,0-0.2-0.1-0.3c0-0.1-0.9-2.5-0.9-3.3c0-0.5,0.1-0.9,0.3-1.5h-12.1c0.2,0.5,0.3,1,0.3,1.5
			c0,0.9-0.9,3.2-0.9,3.3c0,0.1-0.1,0.2-0.1,0.3c-0.3,1.7,0,2.7,0.7,3.3c0.5,0.4,5.4,3.5,6,3.5c0.6,0,5.5-3.1,6-3.5
			C196,69.7,196.4,68.7,196.1,67z M191.3,70.3l-1.7-0.2l0,1.5h-0.1h-0.5h0l0.1-1.5l-1.7,0.2l0.2-0.7c0,0,0-0.1,0-0.1l-1.8-1.5
			l0.5-0.3c0,0,0,0,0,0c0,0,0-0.1,0-0.1l-0.3-1.2l1.1,0.3l0.2-0.7l0.9,1c0,0,0,0,0,0c0,0,0-0.1,0-0.1l-0.4-2l0.7,0.4
			c0.1,0,0.1,0,0.1,0c0,0,0,0,0,0l0.7-1.4l0.7,1.4c0,0,0,0,0,0c0,0,0,0,0.1,0l0.7-0.4l-0.4,2c0,0,0,0.1,0,0.1c0,0,0,0,0,0l0.9-1.1
			l0.2,0.7l1.1-0.2l-0.3,1.2c0,0,0,0.1,0,0.1c0,0,0,0,0,0l0.5,0.3l-1.8,1.5c0,0,0,0.1,0,0.1L191.3,70.3z"/>
		<path class="st2" d="M184.9,53.1l-2.1-3.4l1.2,3.9C184.2,53.4,184.6,53.3,184.9,53.1"/>
		<path class="st2" d="M201.6,72c-0.3,0-1.2,0-1.3,0c-0.1,0-0.2,0-0.3,0.1c-0.1,0.1-0.2,0.2-0.2,0.3c0,0.2-0.2,0.5-0.4,0.7
			c-0.2,0.2-0.6,0.8-0.7,1.1c0.1,0,0.3,0,1-0.2c0.3-0.1,0.6-0.2,0.7-0.3c0,0,0-0.1,0-0.2c0-0.1,0.1-0.3,0.1-0.3
			c0-0.1,0.1-0.5,0.6-0.5l0.2,0c1.3,0,2.1,0,2.2,0c0.1,0,0.3-0.1,0.3-0.2c0,0,0,0,0-0.1c-0.3-0.4-0.6-1.1-0.7-1.7
			c0-0.3,0-0.5,0.1-0.7c0.1-0.2,0.3-0.4,0.5-0.6c0,0,0.1-0.1,0.1-0.1c0.2-0.2,0.5-0.6,0.5-0.8c0,0,0-0.2-0.2-0.2
			c-0.9-0.4-2.2-0.9-3.2-1.5c0.2,0.7,0.1,1.2-0.2,1.5c-0.4,0.4-0.1,1,0.2,1.6c0.1,0.2,0.3,0.4,0.4,0.6l0,0c0.4,0.7,0.7,1,0.5,1.3
			C201.9,71.9,201.8,71.9,201.6,72"/>
		<path class="st2" d="M191.4,76.5c0-0.1,0-0.1-0.1-0.2c0,0.1,0,0.2-0.1,0.2c0,0.1-0.1,0.3-0.1,0.4c0.1,0,0.2,0,0.4,0L191.4,76.5z"
			/>
		<path class="st2" d="M199.5,57.3C199.5,57.3,199.4,57.3,199.5,57.3c-0.3,0-0.5-0.1-0.5-0.2c0-0.1,0-0.1,0-0.1
			c0.2-0.4,0.5-0.5,0.8-0.4c0.1,0.1,0.2,0.1,0.2,0.2C199.8,57.1,199.6,57.2,199.5,57.3 M211.2,63c-0.1-0.5-0.4-0.7-0.7-1
			c-0.2-0.1-0.3-0.2-0.4-0.4c-0.1-0.1-0.3-0.3-0.5-0.5c-0.5-0.5-1.3-1.4-2-1.4c-0.4,0-0.6,0.1-0.8,0.3c-0.2,0.2-0.3,0.6-0.3,1
			c0,0.6,0.7,1.4,1.3,2c0.6,0.7,1.3,1.2,1.3,1.9c0,0.6-0.7,1-0.9,0.9c-0.3-0.2-2.8-3.5-3.4-6.1c-0.7-2.8-1-3.5-2-4
			c-0.3-0.2-0.4-0.3-0.6-0.3c-0.1-0.1-0.2-0.1-0.3-0.2l0,0l0,0c-0.1-0.1-0.1-0.2-0.1-0.3c0,0,0-0.1,0-0.1c-0.2-0.4-0.7-0.2-0.7-0.2
			c-0.7,0.2-1.8,0.3-3.2,0.1c1.1,0.8,2.6,0.5,2.6,0.5c0,0,0.1,0,0.2,0c0,0,0,0.1,0,0.1c-0.1,0.2-0.7,0.4-1.3,0.5
			c-0.3,0-0.3,0.1-0.4,0.4c0,0.1-0.1,0.2-0.1,0.3l0,0c-0.2,0.4-1.1,1.7-1.2,2.2c0,0.1,0,0.2,0.1,0.3c0.2,0.3,0.5,0.6,0.7,0.7l0,0
			c0.1,0,0.2-0.1,0.3-0.2c0.2-0.3,1-0.3,1.2-0.3c0.2,0,0.7-0.1,1.1-0.7c0.1-0.2,0.3,0.1,0.3,0.2c0,0.2-0.6,0.8-1.3,1.1
			c0,0-0.4,0.1-0.6,0.4c-0.2,0.3-0.4,0.8-0.4,1.1c0.1,0,0.5,0,1-0.2c0,0,0,0,0,0c0.1,0,0.1,0,0.1,0.1c0,0,0,0.1,0,0.2
			c-0.1,0.2-0.4,0.4-0.9,0.4c-0.2,0-1.9,0-2.3,0.5c-0.1,0.1-0.1,0.2-0.1,0.4c0.1,0.8,0.3,1.7,0.6,2.6c0.1,0.2,0.3,0.8,0.7,1
			c0,0,0.3-0.3,0.4-0.7c0.1-0.4-0.1-0.8-0.2-0.9c0,0-0.1,0-0.1,0c-0.2,0-0.3,0-0.3-0.1c-0.1-0.1-0.1-0.3-0.1-0.5
			c0-0.1,0.1-0.2,0-0.3c0-0.1-0.1-0.1-0.1-0.2c-0.1-0.1-0.1-0.3-0.1-0.4c0.1-0.2,0.5-0.2,0.6-0.2c0.3,0,0.6,0.2,1,0.3
			c0.2,0,0.3,0.1,0.5,0.1c0.4,0,1,0.2,1.3,0c0.3-0.2,0.5-0.7,0.6-0.8c0-0.1,0.2-0.3,0.2-0.2c0.1,0,0.1,0.2,0.1,0.2
			c0,0.3,0,1.2-0.5,1.5c-0.2,0.1-0.5,0.2-0.8,0.2h0c-0.5,0-0.8-0.1-1.1-0.2c0.6,1.5,2.2,2.3,3.9,3c1.1,0.5,2,0.9,2.1,1.6
			c0,0.1,0,0.2,0,0.4c-0.1,0.8-0.6,2.2,0.9,3.8c0.3,0.4,1.1,1.6,0.3,2.9c-0.1,0.1-0.2,0.4-0.4,0.5c-0.2,0.2-0.9,0.7-0.9,0.8
			c0.1,0.2,0.8,0.2,1.1,0.2c0.3,0,0.6,0,0.7-0.2c0,0,0-0.2,0-0.2c0-0.2,0-0.4,0.2-0.5c0.1-0.1,0.1-0.9,0.2-1.2
			c0.1-0.6,0.1-0.9,0.2-1.1c0.1-0.1,0.1-0.2,0.2-0.3c0.1-0.2,0.3-0.4,0.3-0.5c0-0.1-0.1-0.2-0.2-0.3c-0.2-0.3-0.4-0.7-0.2-1.1
			c0.2-0.4,0.4-0.7,0.5-0.9l0,0c0.1-0.2,0.2-0.3,0.3-0.5c0.2-0.4,0.6-1.5,0.6-2.1c0-0.1-0.1-0.4-0.5-1.4l0-0.1l0.1-0.1
			c0.2-0.2,0.8-0.9,0.8-1.5c0.1-0.8-0.8-1.7-1.5-2.4c-0.6-0.6-1.1-1.1-1.2-1.7c-0.1-0.3,0-0.6,0.2-0.8c0.1-0.1,0.3-0.2,0.4-0.2
			c0.5,0,1.6,0.9,2.1,1.5c0.2,0.2,0.2,0.5,0.2,0.7c0,0.2,0,0.4,0,0.6c0,0.2,0.1,0.3,0.2,0.4c0.1,0.1,0.2,0.3,0.3,0.6
			c0.2-0.3,0.1-0.4,0.2-0.5c0.1-0.2,0.2-0.2,0.2,0c-0.1,0.7,0.1,1.2,0.3,1.4c0,0,0.1,0.1,0.1,0.1c-0.1-0.3,0-0.6,0.1-0.9
			C211.1,63.7,211.2,63.3,211.2,63"/>
		<path class="st2" d="M178,56.6c0.2-0.1,0.6-0.1,0.8,0.4c0,0,0,0.1,0,0.1c-0.1,0.1-0.2,0.2-0.4,0.2c0,0-0.1,0-0.1,0
			c-0.1,0-0.3-0.1-0.5-0.4C177.7,56.7,177.9,56.6,178,56.6 M172.6,76.2L172.6,76.2c-0.3-0.1-0.3-0.3-0.3-0.5c0-0.1,0-0.2-0.1-0.3
			c-0.1-0.1-0.1-1.4-0.1-1.5c0.1-0.9,0.7-1.7,1.3-2.3c0.6-0.7,1.1-1.3,0.9-2c0-0.1-0.1-0.2-0.1-0.3c-0.1-0.3-0.3-0.7,0-1.1
			c0.5-0.7,1.3-1,2.2-1.4c2.8-1.1,3.2-3,3.1-3.2c-0.1-0.2-0.3-0.2-0.8,0c-0.4,0.2-0.7,0.2-1,0.2c-0.7,0-0.9-0.6-0.9-0.7
			c0-0.1,0.1-0.1,0.1-0.1c0.1,0,0.7,0.5,1.7,0c0.8-0.4,2.2-0.3,2.6,0c0.1,0.1,0.2,0.9-0.2,1.2c-0.2,0.2-0.2,0.4-0.2,0.5
			c0,0.2-0.2,0.3-0.4,0.3c0,0-0.1,0-0.1,0c-0.2,0-0.6,0.1-0.6,0.2c-0.1,0.1,0.1,0.7,0.2,1.1c0.1,0.3,0.3,0.5,0.3,0.6
			c0.1,0,0.4-0.2,0.5-0.3c0.1-0.1,0.2-0.1,0.3-0.2c0.2-0.2,0.3-0.5,0.6-0.7c0.1-0.1,0.1-0.1,0.2-0.1c0.1-0.1,0.7-1.9,0.7-2.6
			c0-0.6-0.9-0.9-1.2-1c-0.2,0-2.9-0.8-3-0.8c-0.6-0.1-0.7-0.8-0.6-0.8c0.1,0,0.1,0.2,0.6,0.4c0.1,0,1.2,0.4,1.5,0.5
			c-0.2-0.7-1.3-1.2-3-2.3c-0.6-0.4-0.8-0.8-0.8-1.2c0-0.2,0.1-0.3,0.1-0.3l0,0c0.5,1.1,1.3,1,1.5,1c0.2,0,0.3,0,0.4,0
			c0,0,0,0,0.1,0c0.1,0.1,0.3,0.2,0.8,0.4c0.1,0,0.5,0.4,0.5,0.4s0.1,0.1,0.2,0.1c0.1,0,0.2,0,0.2-0.1c0,0,0,0,0-0.1
			c-0.3-0.3-0.2-0.6-0.2-0.6c0.2-0.1,0.6,0.2,0.7,0.2c0.1,0.1,0.2,0.1,0.2,0.1c0.1,0,0.7-0.2,0.5-0.7c-0.1-0.1-0.2-0.3-0.6-0.6
			c-0.4-0.4-0.9-1-1-1.3c-0.2-0.4-0.4-0.7-0.8-0.8c0,0-0.1-0.1-0.1-0.1c0-0.1,0.2-0.2,0.4-0.3c0.2-0.1,0.4-0.2,0.4-0.3c0,0,0,0,0,0
			c-0.1-0.1-0.4-0.2-0.7-0.2c-0.3,0-0.5,0.1-0.6,0.2l0,0l0,0c-0.2-0.1-0.5-0.1-1.1-0.1l-0.1,0c-0.4,0-0.7,0.1-0.9,0.3
			c-0.2,0.1-0.4,0.2-0.6,0.2c-0.1,0-0.3,0-0.4-0.1c-0.1,0.2,0,0.4,0.2,0.6l0.1,0.1l-0.1,0c-0.4,0.1-0.6,0.3-0.7,0.5
			c-0.1,0.2-0.2,0.4-0.6,0.4c-0.1,0-0.3,0-0.5-0.1c0,0,0,0,0,0c0,0.2,0,0.3,0,0.4c0.1,0.2,0.3,0.3,0.7,0.3l0.1,0l-0.1,0.1
			c-0.6,0.4-0.7,1.2-0.7,1.9c-0.1,0.5-0.1,1-0.4,1.2c0.2,0.1,0.3,0.1,0.4,0.1c0.2,0,0.2-0.1,0.3-0.2c0,0,0-0.1,0.1-0.1l0,0l0,0
			c0.1,0.1,0.3,0.8,0.2,1.5c0,0.4-0.2,1-0.7,1.3c0.1,0.1,0.5,0,0.7-0.1c0.3-0.2,0.5-0.4,0.6-0.7c0.1-0.1,0.2-0.5,0.3-0.5
			c0.1,0,0.2,0.2,0.2,0.2c0.1,0.7-0.8,1.9-2,2.6c-2,1.1-2.2,2.4-2.3,2.9l0,0.1l-0.1,0c-0.3-0.2-0.4-0.5-0.4-0.7
			c0-0.7,0.4-1.4,0.9-2.2c0.4-0.7,0.8-1.4,0.9-2.1c0.2-1.6-0.3-2.4-0.6-2.9c-0.1-0.2-0.2-0.4-0.2-0.5c0-0.2,0.1-0.3,0.3-0.3
			c0.2,0,0.3,0.1,0.4,0.2c0,0,0.1,0,0.1-0.1c0-0.1,0-0.2-0.1-0.3c-0.2-0.2-0.5-0.4-0.9-0.4l0,0c-0.6,0-0.9,0.9-1,1.4l0,0l0,0
			c-0.1,0-0.1,0-0.2,0c-1.5,0-2,1.6-2.1,2.6c0,0.5,0,0.9,0.1,1.3c0.1,0.5,0.1,0.8,0,1.2c-0.1,0.2-0.3,0.2-0.4,0.1
			c-0.1,0-0.1,0-0.2,0c0,0,0,0,0,0.1c0,0,0,0.1,0.1,0.1c0.1,0.1,0.4,0.3,0.7,0.2c0.3-0.1,0.5-0.9,0.6-1.4c0-0.2,0.1-0.3,0.1-0.4
			c0-0.1,0.1-0.2,0.1-0.1c0.1,0,0.1,0.2,0.2,0.7c0,0.1,0.1,0.1,0.1,0.1c0,0,0.1,0,0.1-0.1c0-0.1,0.1-0.2,0.1-0.4
			c0.1-0.4,0.1-0.8,0.6-0.8c0.1,0,0.1,0,0.1,0.1c0.1,0.2,0.1,0.7-0.2,1.6c-0.2,0.8-0.5,1.7-0.5,2.3c0.1,1.3,0.9,1.6,1.1,1.7l0,0l0,0
			c0.1,0.5,0.3,1.1,0.6,1.7c0.5,1.1,0.6,2,0.3,2.7l0,0c-0.1,0.1-0.1,0.2-0.2,0.4c0,0.1,0,0.3,0.1,0.4c0.3,0.3,0.1,1.2-0.1,1.8
			c0,0.1,0.1,0.4,0.3,0.5c0.1,0,0.1,0.4,0.1,0.6c0,0.3,0,0.5,0.1,0.7l0,0c0.2,0,0.4,0,0.6,0c0.6,0,1.1-0.1,1.2-0.1c0,0,0,0,0,0
			c0,0,0-0.1,0-0.1C173.1,77,172.7,76.4,172.6,76.2"/>
		<path class="st2" d="M178.4,80.1l-0.4,0.1l-0.3-2c-1.5,0.2-3,0.4-4.4,0.6c1,0.8,2.1,1.5,3.1,2.3c2.1-0.3,4.1-0.6,6.2-0.8
			c-0.3-0.2-0.6-0.4-0.9-0.6C180.6,79.8,179.5,80,178.4,80.1"/>
		<path class="st2" d="M178.1,73.8c0.1,0.1,1.3,0.3,1.6,0.3c0-0.2-0.2-0.9-0.3-1.1c-0.1-0.1-0.1-0.1-0.1-0.1
			c-0.1-0.1-0.3-0.1-0.5-0.4c-0.1-0.2-0.3-0.3-0.6-0.4c-0.6-0.2-1.7-0.6-1.7-0.9c0-0.3,0.3-0.7,0.5-1c0.4-0.4,0.7-0.9,0.6-1.4l0,0
			c-0.1-0.3-0.2-0.7-0.5-1.1c-0.1-0.2-0.4-0.3-0.7-0.2c-1.6,0.5-1.9,1.2-1.9,1.3c0,0.1,0.1,0.2,0.3,0.3c0.5,0.4,1.1,0.9,0.2,2.8
			c0,0.1,0,0.1,0,0.2c0,0.1,0.2,0.1,0.3,0.1c0.7-0.1,1.6,0.3,1.9,0.6c0.2,0.2,0.3,0.2,0.4,0.2l0,0c0.1,0,0.1,0,0.1,0.1
			c0.1,0.1,0.1,0.3,0.1,0.4C178.1,73.5,178.1,73.7,178.1,73.8"/>
		<path class="st2" d="M194.3,58.4c-0.6,0.1-1.2,0.2-1.8,0.2c-1.6,0-2.8-0.4-3.1-0.6c-0.3,0.2-1.6,0.6-3.1,0.6
			c-0.6,0-1.2-0.1-1.8-0.2c-0.1,0-0.3,0-0.3,0.2c-0.4,0.9-0.9,1.5-1.2,1.9l0.2,0.7l2.3-0.9l1.7,0.8l2.4-1.6l2.3,1.6l1.6-0.8l2.4,0.9
			l0.2-0.7c-0.3-0.4-0.8-1-1.2-1.9C194.6,58.5,194.4,58.4,194.3,58.4"/>
		<path class="st2" d="M193.4,81.7c-0.2-1.1-1-1.9-1-1.9s-1.8,1.6-3.1,2.8c-1.3-1.1-3.1-2.8-3.1-2.8s-0.8,0.8-1,1.9
			c-0.2,0.8-0.5,1-0.5,1l1.4,1.2c0,0,0.5-0.5,0.6-1.2c0.1-0.9,0.7-1.4,0.7-1.4s0.9,0.8,1.7,1.5c-0.5,0.5-1,0.8-1,0.9
			c0,0-0.1,0.1,0,0.2c0.1,0.1,0.2,0.1,0.2,0c0,0,0.5-0.4,1-0.9c0.5,0.5,1,0.9,1,0.9c0,0,0.1,0,0.2,0c0.1-0.1,0-0.1,0-0.2
			c0,0-0.4-0.4-1-0.9c0.8-0.7,1.7-1.5,1.7-1.5s0.6,0.6,0.7,1.4c0.1,0.7,0.6,1.2,0.6,1.2l1.4-1.2C194,82.8,193.6,82.6,193.4,81.7"/>
		<path class="st2" d="M189.6,75.5L189.6,75.5c-0.3,0.9-0.5,1.8-0.7,2.6l0,0.1l-0.1,0c-0.2,0-0.4,0-0.6,0l-0.1,0l0-0.1
			c-0.1-0.4-0.2-0.7-0.2-1.1c0-0.1,0-0.2-0.1-0.3c0,0.1,0,0.2-0.1,0.3c-0.1,0.4-0.1,0.7-0.2,1.1l0,0.1l-0.1,0c-0.2,0-0.4,0-0.6,0
			l-0.1,0l0-0.1c-0.2-0.8-0.5-1.7-0.7-2.5l0-0.1l0.1,0c0.2,0,0.4,0,0.6,0l0.1,0l0,0.1c0.1,0.3,0.2,0.7,0.2,1c0,0.2,0.1,0.3,0.1,0.5
			c0-0.2,0.1-0.3,0.1-0.5c0.1-0.3,0.1-0.7,0.2-1l0-0.1l0.1,0c0.2,0,0.4,0,0.6,0l0.1,0l0,0.1c0.1,0.3,0.1,0.7,0.2,1
			c0,0.1,0.1,0.3,0.1,0.4c0-0.1,0-0.2,0-0.2l0-0.2c0.1-0.3,0.1-0.7,0.2-1l0-0.1l0.1,0C189.1,75.5,189.3,75.5,189.6,75.5L189.6,75.5z
			 M190.1,78c0.3-0.8,0.5-1.7,0.8-2.5l0,0l0.1,0c0.3,0,0.5,0,0.8,0l0.1,0l0,0.1c0.2,0.8,0.5,1.7,0.7,2.5l0,0.1l-0.1,0
			c-0.2,0-0.4,0-0.6,0l-0.1,0l0-0.1c-0.1-0.2-0.1-0.4-0.2-0.6c-0.2,0-0.4,0-0.6,0c-0.1,0.2-0.1,0.4-0.2,0.6l0,0.1l-0.1,0
			C190.6,78.1,190.4,78.1,190.1,78L190.1,78L190.1,78z M193.8,75.6L193.8,75.6c0.3,0,0.6,0,0.9,0c0.4,0,0.7,0.1,0.9,0.3
			c0.2,0.1,0.2,0.4,0.2,0.6c0,0.3-0.2,0.5-0.4,0.6c0.1,0.1,0.2,0.2,0.2,0.5c0,0.1,0,0.2,0,0.2l0,0c0,0.2,0.1,0.4,0.1,0.4l0,0.1
			l-0.1,0c-0.2,0-0.4,0-0.6,0l0,0l0,0c0-0.1-0.1-0.3-0.1-0.6c0-0.3-0.1-0.4-0.3-0.4l-0.1,0l-0.1,1l-0.1,0c-0.2,0-0.4,0-0.6,0l-0.1,0
			L193.8,75.6z M197.1,75.9L197.1,75.9c0.3,0,0.6,0,0.9,0c0.5,0.1,0.8,0.2,1.1,0.4c0.3,0.3,0.4,0.6,0.3,1c-0.1,0.6-0.4,0.8-0.6,1
			c-0.2,0.1-0.5,0.2-0.9,0.2c-0.1,0-0.2,0-0.4,0c-0.3,0-0.5-0.1-0.7-0.1l-0.1,0L197.1,75.9z M185,78.2c-0.2,0-0.4,0-0.6,0l0,0l0,0
			c-0.2-0.3-0.4-0.6-0.6-0.9c-0.1-0.2-0.3-0.4-0.4-0.6c0,0.2,0.1,0.5,0.1,0.8l0.1,0.8l-0.1,0c-0.2,0-0.3,0-0.5,0l-0.1,0l0-0.2
			l-0.2-2.4l0.1,0c0.2,0,0.5,0,0.7-0.1l0,0l0,0c0.2,0.3,0.4,0.6,0.6,0.9c0.1,0.1,0.2,0.3,0.3,0.5c0-0.2,0-0.4-0.1-0.6l-0.1-0.8
			l0.1,0c0.2,0,0.4,0,0.5,0l0.1,0l0,0.1L185,78.2L185,78.2z M180.5,78.7c-0.1,0-0.1,0-0.2,0c-0.7,0-1.2-0.5-1.3-1.2
			c-0.1-0.4,0-0.8,0.2-1c0.2-0.3,0.5-0.4,0.9-0.5c0.4,0,0.7,0,1,0.2c0.3,0.2,0.4,0.5,0.5,0.9C181.8,78,181.3,78.6,180.5,78.7
			 M178.2,75.9l0.5,3.5c3.5-0.5,7-0.8,10.5-0.8c3.5,0,7.1,0.3,10.5,0.8l0.5-3.5C193,74.8,185.5,74.8,178.2,75.9"/>
		<path class="st2" d="M186.1,57.6c1-0.6,2.1-0.8,3.3-0.8s2.2,0.2,3.3,0.8c0.4-0.7,1.5-2.6,1.6-2.8c-0.3-0.2-0.6-0.3-0.9-0.5
			c0,0-0.1,0-0.1,0c-0.1,0.3-0.2,0.6-0.4,0.9c-0.3-0.1-0.7-0.3-1-0.4c0.1-0.3,0.2-0.6,0.3-0.9c-0.4-0.1-0.7-0.2-1.1-0.2
			c-0.1,0.3-0.1,0.6-0.2,0.9c-0.3-0.1-0.7-0.1-1-0.1c0-0.3,0-0.6,0-0.9c-0.4,0-0.7,0-1.1,0c0,0.3,0,0.6,0,0.9c-0.3,0-0.7,0.1-1,0.1
			c-0.1-0.3-0.1-0.6-0.2-0.9c-0.4,0.1-0.7,0.1-1.1,0.2c0.1,0.3,0.2,0.6,0.3,0.9c-0.3,0.1-0.7,0.2-1,0.4c-0.1-0.3-0.2-0.6-0.4-0.8
			c0,0-0.1,0-0.1,0c-0.3,0.1-0.6,0.3-0.9,0.5C184.6,55,185.7,56.9,186.1,57.6"/>
		<path class="st2" d="M200.4,80.2l-0.4-0.1c-1-0.2-2.1-0.3-3.2-0.4v0c-0.3,0.2-0.6,0.4-0.8,0.6c2.1,0.2,4.2,0.5,6.2,0.8
			c1-0.8,2-1.6,3.1-2.3c-1.5-0.2-3.1-0.4-4.6-0.6L200.4,80.2z"/>
		<path class="st2" d="M195.9,49.8l-2.1,3.3c0.3,0.1,0.7,0.3,1,0.5L195.9,49.8z"/>
	</g>
</g>
</svg>
