<svg xmlns="http://www.w3.org/2000/svg" viewBox="0 0 105 55"><defs><style>.cls-1{fill:#fff;}.cls-2{fill:#333;}.cls-3{fill:none;stroke:#e26095;stroke-miterlimit:10;stroke-width:5px;}</style></defs><title>ai-interface-logo</title><g id="Layer_2" data-name="Layer 2"><g id="desktop-mockup"><g id="logo"><g id="e-cat"><path id="e-shape" d="M86.41,36.48l1.06.83a9.35,9.35,0,0,1-8.79,5.34c-6.17,0-10.17-4.28-10.17-11.28a15,15,0,0,1,.2-2.46,12.15,12.15,0,0,1,1.57-4.28h0a10.78,10.78,0,0,1,1.58-2l.06-.06a1.23,1.23,0,0,0,1.06,0l1.32-.63A1.22,1.22,0,0,0,75,20.48a10,10,0,0,1,4-.85,9.49,9.49,0,0,1,2.85.43,1.23,1.23,0,0,0,.68,1.34l1.32.63a1.27,1.27,0,0,0,1.2-.07,8.79,8.79,0,0,1,2.46,6.47A9.39,9.39,0,0,1,87.19,31H72.42c.07,5.7,3,8.75,7.55,8.75A8,8,0,0,0,86.41,36.48Z"/><ellipse id="eyeline" class="cls-1" cx="76" cy="24.5" rx="1" ry="1.5"/><ellipse id="eyeline-2" data-name="eyeline" class="cls-1" cx="81" cy="24.5" rx="1" ry="1.5"/><circle id="eyeball" cx="80.5" cy="24.5" r="0.5"/><circle id="eyeball-2" data-name="eyeball" cx="75.5" cy="24.5" r="0.5"/><path id="ear-right" d="M86,16.76v3.69a1.23,1.23,0,0,1-1.77,1.12L82.92,21a1.25,1.25,0,0,1-.69-1.35,1.22,1.22,0,0,1,.56-.82Z"/><path id="ear-left" d="M74.3,21.46,73,22.09a1.16,1.16,0,0,1-1.06,0,1.22,1.22,0,0,1-.7-1.26l.45-3.77,2.87,2.33a1.24,1.24,0,0,1-.24,2.07Z"/><path id="nose" class="cls-1" d="M77.84,29.15h0a1,1,0,0,1,.86-1.51h0a1,1,0,0,1,.88,1.5h0A1,1,0,0,1,77.84,29.15Z"/><polyline id="needle" points="87.39 27.65 89.16 28 91 28"/><polyline id="needle-2" data-name="needle" points="87.48 29.44 88.8 29.52 90.22 29.88"/><polyline id="needle-3" data-name="needle" points="68.88 27.59 67.21 27 66 27"/><polyline id="needle-4" data-name="needle" points="69 28 67.21 28 65.44 27.65"/><polyline id="needle-5" data-name="needle" points="68.75 26.54 67.23 26.24 66.01 25.63"/><polyline id="needle-6" data-name="needle" points="87.51 26.54 89.51 26.69 90.57 26.34"/></g><path id="t" class="cls-2" d="M62.8,39.37a5.94,5.94,0,0,0,3.4-1.29l1.15,1.24a7.4,7.4,0,0,1-5.8,2.35c-3.45,0-5.6-1.66-5.6-5.2,0-1.1,0-2.07,0-3.86V22H52V19.94l5.9-.76L56,20.76,57.43,13h3L60,21.05V36C60,38.36,61.1,39.37,62.8,39.37ZM66,19v3H58V19Z"/><path id="a" class="cls-2" d="M37.87,29.53A49.59,49.59,0,0,1,45,27.6v1.66a41.55,41.55,0,0,0-6.17,1.84c-4.14,1.61-4.6,3.36-4.6,4.69,0,2.44,1.61,3.41,3.73,3.41,1.61,0,2.53-.6,5.43-2.67l.92-.69.64,1-1.33,1.34c-2.76,2.76-4.33,4-7.13,4-3.36,0-6.17-1.93-6.17-5.75C30.32,33.86,31.7,31.79,37.87,29.53ZM43,37.94V26.54c0-4.9-1.4-6.1-4.7-6.1a11.63,11.63,0,0,0-4.5.9l2-1.55-1.3,4.3c-.45,1.45-1.2,2.25-2.55,2.25a2,2,0,0,1-2.25-2c.95-3.8,4.65-6.15,9.65-6.15S47,20.54,47,26.84v10.6c0,2.25.7,3.05,1.85,3.05a2.47,2.47,0,0,0,1.95-1.1l1,1.1A4.67,4.67,0,0,1,47.55,43C44.8,43,43,41,43,37.94Z"/><path id="k" class="cls-2" d="M0,12.66V11H13v1.66L7,14H6ZM7,39l6,.8V42H0V39.8L6,39ZM5,25.34C5,20.58,5,15.77,4.86,11H9.14C9,15.67,9,20.49,9,25.34v3.52c0,3.56,0,8.37.14,13.14H4.86C5,37.33,5,32.52,5,27.66ZM7,30.7,23.11,11h2.76L7,33.69ZM14.94,22,26.08,42H21.75L12.54,24.83ZM16,39.8l6.05-.8h.69l5.26.8V42H16Zm1-27V11H28v1.84l-5.26.69-1,.23Z"/><line id="line-bottom" class="cls-3" y1="52.5" x2="105" y2="52.5"/><line id="line-top" class="cls-3" y1="2.5" x2="105" y2="2.5"/></g></g></g></svg>